<svg xmlns="http://www.w3.org/2000/svg" xmlns:xlink="http://www.w3.org/1999/xlink" version="1.1" x="0px" y="0px" viewBox="0 0 100 100" enable-background="new 0 0 100 100" xml:space="preserve"><path d="M50,1.6C23.1,1.6,1.2,23.4,1.2,50.4S23.1,99.1,50,99.1s48.8-21.8,48.8-48.8S76.9,1.6,50,1.6z M50.1,83.5  c-3,0-5.5-2.5-5.5-5.5c0-3.1,2.5-5.6,5.5-5.6c3.1,0.1,5.6,2.5,5.6,5.6C55.7,81,53.2,83.5,50.1,83.5z M61.9,45.4  c-1.4,1.7-2.8,3.1-4.1,4.2c-3.5,3.5-5.5,5.5-5.5,9.6c0,1.2-1,2.2-2.2,2.2c-1.2,0-2.2-1-2.2-2.2c0-5.8,3-8.9,6.8-12.7  c1.2-1.2,2.5-2.5,3.9-4.1c2.2-2.5,3.5-5.6,3.5-8.8c0.1-3.2-1.2-6.3-3.5-8.6c-4.8-4.7-12.5-4.7-17.2,0.1c-2.3,2.3-3.6,5.3-3.6,8.6  c0,1.2-1,2.2-2.2,2.2c-1.2,0-2.2-1-2.2-2.2c0-4.4,1.8-8.6,4.9-11.8c6.5-6.5,17-6.5,23.5,0c3.2,3.3,4.8,7.5,4.8,11.9  C66.5,38,64.9,42.1,61.9,45.4z"></path></svg>